<mxfile host="app.diagrams.net" agent="Mozilla/5.0 (Windows NT 10.0; Win64; x64) AppleWebKit/537.36 (KHTML, like Gecko) Chrome/138.0.0.0 Safari/537.36 Edg/138.0.0.0" version="28.0.7">
  <diagram name="Page-1" id="JxZPD5wCC7K04NPEPp4a">
    <mxGraphModel dx="1571" dy="884" grid="1" gridSize="10" guides="1" tooltips="1" connect="1" arrows="1" fold="1" page="1" pageScale="1" pageWidth="3800" pageHeight="1000" math="0" shadow="0">
      <root>
        <mxCell id="0" />
        <mxCell id="1" parent="0" />
        <mxCell id="OdhpevQ0fFRFlVbCwTi9-60" value="&lt;span style=&quot;text-wrap-mode: nowrap;&quot;&gt;LIBRARY OWNER&lt;/span&gt;" style="rounded=0;whiteSpace=wrap;html=1;" vertex="1" parent="1">
          <mxGeometry x="2615" y="160" width="120" height="60" as="geometry" />
        </mxCell>
        <mxCell id="OdhpevQ0fFRFlVbCwTi9-61" value="" style="endArrow=classic;html=1;rounded=1;entryX=0.5;entryY=0;entryDx=0;entryDy=0;exitX=0;exitY=0.5;exitDx=0;exitDy=0;curved=0;" edge="1" parent="1" source="OdhpevQ0fFRFlVbCwTi9-60" target="OdhpevQ0fFRFlVbCwTi9-65">
          <mxGeometry width="50" height="50" relative="1" as="geometry">
            <mxPoint x="2290" y="490" as="sourcePoint" />
            <mxPoint x="2340" y="440" as="targetPoint" />
            <Array as="points">
              <mxPoint x="2035" y="190" />
            </Array>
          </mxGeometry>
        </mxCell>
        <mxCell id="OdhpevQ0fFRFlVbCwTi9-63" value="" style="endArrow=classic;html=1;rounded=1;entryX=0.75;entryY=0;entryDx=0;entryDy=0;exitX=1;exitY=0.5;exitDx=0;exitDy=0;curved=0;" edge="1" parent="1" source="OdhpevQ0fFRFlVbCwTi9-60" target="OdhpevQ0fFRFlVbCwTi9-91">
          <mxGeometry width="50" height="50" relative="1" as="geometry">
            <mxPoint x="2919" y="320" as="sourcePoint" />
            <mxPoint x="3275" y="390" as="targetPoint" />
            <Array as="points">
              <mxPoint x="3313" y="190" />
            </Array>
          </mxGeometry>
        </mxCell>
        <mxCell id="OdhpevQ0fFRFlVbCwTi9-103" value="" style="endArrow=classic;html=1;rounded=0;entryX=0.25;entryY=0;entryDx=0;entryDy=0;exitX=0.75;exitY=0;exitDx=0;exitDy=0;" edge="1" parent="1" source="OdhpevQ0fFRFlVbCwTi9-44" target="OdhpevQ0fFRFlVbCwTi9-65">
          <mxGeometry width="50" height="50" relative="1" as="geometry">
            <mxPoint x="1550" y="195" as="sourcePoint" />
            <mxPoint x="2024.5" y="185" as="targetPoint" />
            <Array as="points">
              <mxPoint x="1523" y="195" />
              <mxPoint x="2000" y="195" />
            </Array>
          </mxGeometry>
        </mxCell>
        <mxCell id="OdhpevQ0fFRFlVbCwTi9-104" value="Reader_ID" style="text;html=1;align=center;verticalAlign=middle;resizable=0;points=[];autosize=1;strokeColor=none;fillColor=none;" vertex="1" parent="1">
          <mxGeometry x="1710" y="200" width="80" height="30" as="geometry" />
        </mxCell>
        <mxCell id="OdhpevQ0fFRFlVbCwTi9-105" value="" style="endArrow=classic;html=1;rounded=0;entryX=0.25;entryY=0;entryDx=0;entryDy=0;exitX=0.75;exitY=0;exitDx=0;exitDy=0;" edge="1" parent="1" source="OdhpevQ0fFRFlVbCwTi9-78" target="OdhpevQ0fFRFlVbCwTi9-91">
          <mxGeometry width="50" height="50" relative="1" as="geometry">
            <mxPoint x="2770" y="450" as="sourcePoint" />
            <mxPoint x="2820" y="400" as="targetPoint" />
            <Array as="points">
              <mxPoint x="2713" y="320" />
              <mxPoint x="3240" y="320" />
            </Array>
          </mxGeometry>
        </mxCell>
        <mxCell id="OdhpevQ0fFRFlVbCwTi9-78" value="&lt;span style=&quot;text-indent: -24px;&quot;&gt;&lt;span style=&quot;font-variant-numeric: normal; font-variant-east-asian: normal; font-variant-alternates: normal; font-size-adjust: none; font-kerning: auto; font-optical-sizing: auto; font-feature-settings: normal; font-variation-settings: normal; font-variant-position: normal; font-variant-emoji: normal; font-stretch: normal; font-size: 7pt; line-height: normal; font-family: &amp;quot;Times New Roman&amp;quot;;&quot;&gt;&amp;nbsp;&lt;/span&gt;&lt;/span&gt;&lt;span style=&quot;text-indent: -24px; font-family: &amp;quot;Helvetica World&amp;quot;;&quot;&gt;TOP 10 EVENTS&lt;/span&gt;" style="rounded=1;whiteSpace=wrap;html=1;" vertex="1" parent="1">
          <mxGeometry x="2600" y="400" width="150" height="70" as="geometry" />
        </mxCell>
        <mxCell id="OdhpevQ0fFRFlVbCwTi9-79" value="" style="endArrow=classic;html=1;rounded=0;exitX=0.5;exitY=0;exitDx=0;exitDy=0;entryX=0.5;entryY=1;entryDx=0;entryDy=0;" edge="1" parent="1" source="OdhpevQ0fFRFlVbCwTi9-82" target="OdhpevQ0fFRFlVbCwTi9-78">
          <mxGeometry width="50" height="50" relative="1" as="geometry">
            <mxPoint x="3030" y="500" as="sourcePoint" />
            <mxPoint x="3000" y="480" as="targetPoint" />
          </mxGeometry>
        </mxCell>
        <mxCell id="OdhpevQ0fFRFlVbCwTi9-80" value="1{Event_ID&amp;nbsp;&lt;div&gt;+ Event_Description&amp;nbsp;&lt;div&gt;+ EventDateTime&amp;nbsp;&lt;/div&gt;&lt;/div&gt;&lt;span style=&quot;color: light-dark(rgb(0, 0, 0), rgb(255, 255, 255));&quot;&gt;+ EventNoAttendees&lt;/span&gt;&lt;span style=&quot;color: light-dark(rgb(0, 0, 0), rgb(255, 255, 255));&quot;&gt;}N&lt;/span&gt;" style="edgeLabel;html=1;align=center;verticalAlign=middle;resizable=0;points=[];" vertex="1" connectable="0" parent="OdhpevQ0fFRFlVbCwTi9-79">
          <mxGeometry x="0.2" y="3" relative="1" as="geometry">
            <mxPoint x="68" y="-2" as="offset" />
          </mxGeometry>
        </mxCell>
        <mxCell id="OdhpevQ0fFRFlVbCwTi9-81" value="" style="group" vertex="1" connectable="0" parent="1">
          <mxGeometry x="2585" y="650" width="180" height="60" as="geometry" />
        </mxCell>
        <mxCell id="OdhpevQ0fFRFlVbCwTi9-82" value="D4" style="html=1;dashed=0;whiteSpace=wrap;shape=mxgraph.dfd.dataStoreID;align=left;spacingLeft=3;points=[[0,0],[0.5,0],[1,0],[0,0.5],[1,0.5],[0,1],[0.5,1],[1,1]];" vertex="1" parent="OdhpevQ0fFRFlVbCwTi9-81">
          <mxGeometry width="180" height="60" as="geometry" />
        </mxCell>
        <mxCell id="OdhpevQ0fFRFlVbCwTi9-83" value="EVENTS" style="text;html=1;align=center;verticalAlign=middle;resizable=0;points=[];autosize=1;strokeColor=none;fillColor=none;" vertex="1" parent="OdhpevQ0fFRFlVbCwTi9-81">
          <mxGeometry x="55" y="15" width="70" height="30" as="geometry" />
        </mxCell>
        <mxCell id="OdhpevQ0fFRFlVbCwTi9-107" value="" style="endArrow=none;html=1;rounded=0;entryX=0.75;entryY=0;entryDx=0;entryDy=0;exitX=0.25;exitY=0;exitDx=0;exitDy=0;endFill=0;startArrow=classic;startFill=1;" edge="1" parent="1" source="OdhpevQ0fFRFlVbCwTi9-78" target="OdhpevQ0fFRFlVbCwTi9-65">
          <mxGeometry width="50" height="50" relative="1" as="geometry">
            <mxPoint x="2360" y="320" as="sourcePoint" />
            <mxPoint x="2410" y="270" as="targetPoint" />
            <Array as="points">
              <mxPoint x="2638" y="280" />
              <mxPoint x="2073" y="280" />
            </Array>
          </mxGeometry>
        </mxCell>
        <mxCell id="OdhpevQ0fFRFlVbCwTi9-108" value="Event_ID" style="text;html=1;align=center;verticalAlign=middle;resizable=0;points=[];autosize=1;strokeColor=none;fillColor=none;" vertex="1" parent="1">
          <mxGeometry x="2320" y="280" width="70" height="30" as="geometry" />
        </mxCell>
        <mxCell id="OdhpevQ0fFRFlVbCwTi9-91" value="&lt;span style=&quot;text-indent: -24px;&quot;&gt;&lt;span style=&quot;font-variant-numeric: normal; font-variant-east-asian: normal; font-variant-alternates: normal; font-size-adjust: none; font-kerning: auto; font-optical-sizing: auto; font-feature-settings: normal; font-variation-settings: normal; font-variant-position: normal; font-variant-emoji: normal; font-stretch: normal; font-size: 7pt; line-height: normal; font-family: &amp;quot;Times New Roman&amp;quot;;&quot;&gt;&amp;nbsp;&lt;/span&gt;&lt;/span&gt;&lt;span style=&quot;text-indent: -24px; font-family: &amp;quot;Helvetica World&amp;quot;;&quot;&gt;REQUEST REPORTS&lt;/span&gt;" style="rounded=1;whiteSpace=wrap;html=1;" vertex="1" parent="1">
          <mxGeometry x="3200" y="400" width="150" height="70" as="geometry" />
        </mxCell>
        <mxCell id="OdhpevQ0fFRFlVbCwTi9-65" value="&lt;span style=&quot;text-indent: -24px;&quot;&gt;&lt;span style=&quot;font-variant-numeric: normal; font-variant-east-asian: normal; font-variant-alternates: normal; font-size-adjust: none; font-kerning: auto; font-optical-sizing: auto; font-feature-settings: normal; font-variation-settings: normal; font-variant-position: normal; font-variant-emoji: normal; font-stretch: normal; font-size: 7pt; line-height: normal; font-family: &amp;quot;Times New Roman&amp;quot;;&quot;&gt;&amp;nbsp;&lt;/span&gt;&lt;/span&gt;&lt;span style=&quot;text-indent: -24px; font-family: &amp;quot;Helvetica World&amp;quot;;&quot;&gt;MAINTAIN EVENTS&lt;/span&gt;" style="rounded=1;whiteSpace=wrap;html=1;" vertex="1" parent="1">
          <mxGeometry x="1960" y="390" width="150" height="70" as="geometry" />
        </mxCell>
        <mxCell id="OdhpevQ0fFRFlVbCwTi9-66" value="" style="endArrow=classic;html=1;rounded=0;exitX=0.5;exitY=0;exitDx=0;exitDy=0;entryX=0.5;entryY=1;entryDx=0;entryDy=0;" edge="1" parent="1" source="OdhpevQ0fFRFlVbCwTi9-69" target="OdhpevQ0fFRFlVbCwTi9-65">
          <mxGeometry width="50" height="50" relative="1" as="geometry">
            <mxPoint x="2390" y="490" as="sourcePoint" />
            <mxPoint x="2360" y="470" as="targetPoint" />
          </mxGeometry>
        </mxCell>
        <mxCell id="OdhpevQ0fFRFlVbCwTi9-67" value="1{Event_ID&amp;nbsp;&lt;div&gt;+ Event_Description&amp;nbsp;&lt;div&gt;+ EventDateTime&amp;nbsp;&lt;/div&gt;&lt;/div&gt;&lt;span style=&quot;background-color: light-dark(#ffffff, var(--ge-dark-color, #121212)); color: light-dark(rgb(0, 0, 0), rgb(255, 255, 255));&quot;&gt;+ EventNoAttendees&lt;/span&gt;&lt;span style=&quot;background-color: light-dark(#ffffff, var(--ge-dark-color, #121212)); color: light-dark(rgb(0, 0, 0), rgb(255, 255, 255));&quot;&gt;}N&lt;/span&gt;" style="edgeLabel;html=1;align=center;verticalAlign=middle;resizable=0;points=[];" vertex="1" connectable="0" parent="OdhpevQ0fFRFlVbCwTi9-66">
          <mxGeometry x="0.2" y="3" relative="1" as="geometry">
            <mxPoint x="68" y="-2" as="offset" />
          </mxGeometry>
        </mxCell>
        <mxCell id="OdhpevQ0fFRFlVbCwTi9-68" value="" style="group" vertex="1" connectable="0" parent="1">
          <mxGeometry x="1945" y="640" width="180" height="60" as="geometry" />
        </mxCell>
        <mxCell id="OdhpevQ0fFRFlVbCwTi9-69" value="D4" style="html=1;dashed=0;whiteSpace=wrap;shape=mxgraph.dfd.dataStoreID;align=left;spacingLeft=3;points=[[0,0],[0.5,0],[1,0],[0,0.5],[1,0.5],[0,1],[0.5,1],[1,1]];" vertex="1" parent="OdhpevQ0fFRFlVbCwTi9-68">
          <mxGeometry width="180" height="60" as="geometry" />
        </mxCell>
        <mxCell id="OdhpevQ0fFRFlVbCwTi9-70" value="EVENTS" style="text;html=1;align=center;verticalAlign=middle;resizable=0;points=[];autosize=1;strokeColor=none;fillColor=none;" vertex="1" parent="OdhpevQ0fFRFlVbCwTi9-68">
          <mxGeometry x="55" y="15" width="70" height="30" as="geometry" />
        </mxCell>
        <mxCell id="OdhpevQ0fFRFlVbCwTi9-71" value="" style="endArrow=classic;html=1;rounded=0;entryX=0;entryY=0.5;entryDx=0;entryDy=0;curved=0;exitX=0;exitY=0.5;exitDx=0;exitDy=0;" edge="1" parent="1" source="OdhpevQ0fFRFlVbCwTi9-65" target="OdhpevQ0fFRFlVbCwTi9-69">
          <mxGeometry width="50" height="50" relative="1" as="geometry">
            <mxPoint x="2120" y="590" as="sourcePoint" />
            <mxPoint x="2170" y="540" as="targetPoint" />
            <Array as="points">
              <mxPoint x="1880" y="425" />
              <mxPoint x="1880" y="670" />
            </Array>
          </mxGeometry>
        </mxCell>
        <mxCell id="OdhpevQ0fFRFlVbCwTi9-72" value="Event_ID&amp;nbsp;&lt;div&gt;+ Event_Description&amp;nbsp;&lt;div&gt;+ EventDateTime&amp;nbsp;&lt;/div&gt;&lt;div&gt;+ EventNoAttendees&lt;/div&gt;&lt;/div&gt;" style="edgeLabel;html=1;align=center;verticalAlign=middle;resizable=0;points=[];" vertex="1" connectable="0" parent="OdhpevQ0fFRFlVbCwTi9-71">
          <mxGeometry x="-0.0513" y="2" relative="1" as="geometry">
            <mxPoint x="63" y="-30" as="offset" />
          </mxGeometry>
        </mxCell>
        <mxCell id="OdhpevQ0fFRFlVbCwTi9-73" value="" style="endArrow=classic;html=1;rounded=0;entryX=1;entryY=0.5;entryDx=0;entryDy=0;jumpStyle=none;strokeColor=default;flowAnimation=0;exitX=1;exitY=0.75;exitDx=0;exitDy=0;" edge="1" parent="1" source="OdhpevQ0fFRFlVbCwTi9-65" target="OdhpevQ0fFRFlVbCwTi9-69">
          <mxGeometry width="50" height="50" relative="1" as="geometry">
            <mxPoint x="2170" y="400" as="sourcePoint" />
            <mxPoint x="2130" y="680" as="targetPoint" />
            <Array as="points">
              <mxPoint x="2170" y="443" />
              <mxPoint x="2170" y="670" />
            </Array>
          </mxGeometry>
        </mxCell>
        <mxCell id="OdhpevQ0fFRFlVbCwTi9-74" value="&amp;nbsp;&lt;div&gt;Event_Description&amp;nbsp;&lt;div&gt;+ EventDateTime&amp;nbsp;&lt;/div&gt;&lt;div&gt;+ EventNoAttendees&lt;/div&gt;&lt;/div&gt;" style="edgeLabel;html=1;align=center;verticalAlign=middle;resizable=0;points=[];" vertex="1" connectable="0" parent="OdhpevQ0fFRFlVbCwTi9-73">
          <mxGeometry x="0.0381" y="1" relative="1" as="geometry">
            <mxPoint x="59" y="25" as="offset" />
          </mxGeometry>
        </mxCell>
        <mxCell id="OdhpevQ0fFRFlVbCwTi9-75" value="" style="endArrow=classic;html=1;rounded=0;entryX=0.5;entryY=1;entryDx=0;entryDy=0;exitX=1;exitY=0.25;exitDx=0;exitDy=0;" edge="1" parent="1" source="OdhpevQ0fFRFlVbCwTi9-65" target="OdhpevQ0fFRFlVbCwTi9-69">
          <mxGeometry width="50" height="50" relative="1" as="geometry">
            <mxPoint x="2090" y="530" as="sourcePoint" />
            <mxPoint x="2220" y="630" as="targetPoint" />
            <Array as="points">
              <mxPoint x="2280" y="408" />
              <mxPoint x="2280" y="750" />
              <mxPoint x="2035" y="750" />
            </Array>
          </mxGeometry>
        </mxCell>
        <mxCell id="OdhpevQ0fFRFlVbCwTi9-76" value="Event_ID" style="text;html=1;align=center;verticalAlign=middle;resizable=0;points=[];autosize=1;strokeColor=none;fillColor=none;" vertex="1" parent="1">
          <mxGeometry x="2115" y="758" width="70" height="30" as="geometry" />
        </mxCell>
        <mxCell id="OdhpevQ0fFRFlVbCwTi9-110" value="1{Event_ID&amp;nbsp;&lt;div&gt;+ Event_Description&amp;nbsp;&lt;div&gt;+ EventDateTime&amp;nbsp;&lt;/div&gt;&lt;/div&gt;&lt;span style=&quot;color: light-dark(rgb(0, 0, 0), rgb(255, 255, 255));&quot;&gt;+ EventNoAttendees&lt;/span&gt;&lt;span style=&quot;color: light-dark(rgb(0, 0, 0), rgb(255, 255, 255));&quot;&gt;}N&lt;/span&gt;" style="edgeLabel;html=1;align=center;verticalAlign=middle;resizable=0;points=[];" vertex="1" connectable="0" parent="1">
          <mxGeometry x="3220" y="560" as="geometry" />
        </mxCell>
        <mxCell id="OdhpevQ0fFRFlVbCwTi9-111" value="" style="group" vertex="1" connectable="0" parent="1">
          <mxGeometry x="3060" y="690" width="180" height="60" as="geometry" />
        </mxCell>
        <mxCell id="OdhpevQ0fFRFlVbCwTi9-112" value="D4" style="html=1;dashed=0;whiteSpace=wrap;shape=mxgraph.dfd.dataStoreID;align=left;spacingLeft=3;points=[[0,0],[0.5,0],[1,0],[0,0.5],[1,0.5],[0,1],[0.5,1],[1,1]];" vertex="1" parent="OdhpevQ0fFRFlVbCwTi9-111">
          <mxGeometry width="180" height="60" as="geometry" />
        </mxCell>
        <mxCell id="OdhpevQ0fFRFlVbCwTi9-113" value="EVENTS" style="text;html=1;align=center;verticalAlign=middle;resizable=0;points=[];autosize=1;strokeColor=none;fillColor=none;" vertex="1" parent="OdhpevQ0fFRFlVbCwTi9-111">
          <mxGeometry x="55" y="15" width="70" height="30" as="geometry" />
        </mxCell>
        <mxCell id="OdhpevQ0fFRFlVbCwTi9-114" value="" style="endArrow=classic;html=1;rounded=0;entryX=0;entryY=0.5;entryDx=0;entryDy=0;exitX=0.543;exitY=-0.057;exitDx=0;exitDy=0;exitPerimeter=0;" edge="1" parent="1" source="OdhpevQ0fFRFlVbCwTi9-112" target="OdhpevQ0fFRFlVbCwTi9-91">
          <mxGeometry width="50" height="50" relative="1" as="geometry">
            <mxPoint x="3000" y="680" as="sourcePoint" />
            <mxPoint x="3050" y="630" as="targetPoint" />
            <Array as="points">
              <mxPoint x="3160" y="435" />
            </Array>
          </mxGeometry>
        </mxCell>
        <mxCell id="OdhpevQ0fFRFlVbCwTi9-115" value="Event_ID" style="text;html=1;align=center;verticalAlign=middle;resizable=0;points=[];autosize=1;strokeColor=none;fillColor=none;" vertex="1" parent="1">
          <mxGeometry x="2950" y="328" width="70" height="30" as="geometry" />
        </mxCell>
        <mxCell id="OdhpevQ0fFRFlVbCwTi9-2" value="&lt;span style=&quot;text-wrap-mode: nowrap;&quot;&gt;LIBRARIAN&lt;/span&gt;" style="rounded=0;whiteSpace=wrap;html=1;" vertex="1" parent="1">
          <mxGeometry x="825" y="160" width="120" height="60" as="geometry" />
        </mxCell>
        <mxCell id="OdhpevQ0fFRFlVbCwTi9-6" value="" style="endArrow=classic;html=1;rounded=1;entryX=0.5;entryY=0;entryDx=0;entryDy=0;exitX=0;exitY=0.5;exitDx=0;exitDy=0;curved=0;" edge="1" parent="1" source="OdhpevQ0fFRFlVbCwTi9-2" target="OdhpevQ0fFRFlVbCwTi9-1">
          <mxGeometry width="50" height="50" relative="1" as="geometry">
            <mxPoint x="500" y="490" as="sourcePoint" />
            <mxPoint x="550" y="440" as="targetPoint" />
            <Array as="points">
              <mxPoint x="245" y="190" />
            </Array>
          </mxGeometry>
        </mxCell>
        <mxCell id="OdhpevQ0fFRFlVbCwTi9-7" value="" style="endArrow=classic;html=1;rounded=1;entryX=0.5;entryY=0;entryDx=0;entryDy=0;exitX=0.5;exitY=1;exitDx=0;exitDy=0;curved=0;" edge="1" parent="1" source="OdhpevQ0fFRFlVbCwTi9-2" target="OdhpevQ0fFRFlVbCwTi9-31">
          <mxGeometry width="50" height="50" relative="1" as="geometry">
            <mxPoint x="859" y="310" as="sourcePoint" />
            <mxPoint x="885" y="390" as="targetPoint" />
            <Array as="points" />
          </mxGeometry>
        </mxCell>
        <mxCell id="OdhpevQ0fFRFlVbCwTi9-8" value="" style="endArrow=classic;html=1;rounded=1;entryX=0.25;entryY=0;entryDx=0;entryDy=0;exitX=1;exitY=0.5;exitDx=0;exitDy=0;curved=0;" edge="1" parent="1" source="OdhpevQ0fFRFlVbCwTi9-2" target="OdhpevQ0fFRFlVbCwTi9-44">
          <mxGeometry width="50" height="50" relative="1" as="geometry">
            <mxPoint x="1129" y="320" as="sourcePoint" />
            <mxPoint x="1485" y="390" as="targetPoint" />
            <Array as="points">
              <mxPoint x="1450" y="190" />
            </Array>
          </mxGeometry>
        </mxCell>
        <mxCell id="OdhpevQ0fFRFlVbCwTi9-29" value="" style="group" vertex="1" connectable="0" parent="1">
          <mxGeometry x="90" y="390" width="400" height="398" as="geometry" />
        </mxCell>
        <mxCell id="OdhpevQ0fFRFlVbCwTi9-1" value="&lt;span style=&quot;text-indent: -24px;&quot;&gt;&lt;span style=&quot;font-variant-numeric: normal; font-variant-east-asian: normal; font-variant-alternates: normal; font-size-adjust: none; font-kerning: auto; font-optical-sizing: auto; font-feature-settings: normal; font-variation-settings: normal; font-variant-position: normal; font-variant-emoji: normal; font-stretch: normal; font-size: 7pt; line-height: normal; font-family: &amp;quot;Times New Roman&amp;quot;;&quot;&gt;&amp;nbsp;&lt;/span&gt;&lt;/span&gt;&lt;span style=&quot;text-indent: -24px; font-family: &amp;quot;Helvetica World&amp;quot;;&quot;&gt;MAINTAIN AUTHOR&lt;/span&gt;" style="rounded=1;whiteSpace=wrap;html=1;" vertex="1" parent="OdhpevQ0fFRFlVbCwTi9-29">
          <mxGeometry x="80" width="150" height="70" as="geometry" />
        </mxCell>
        <mxCell id="OdhpevQ0fFRFlVbCwTi9-23" value="" style="endArrow=classic;html=1;rounded=0;entryX=0;entryY=0.5;entryDx=0;entryDy=0;curved=0;exitX=0;exitY=0.5;exitDx=0;exitDy=0;" edge="1" parent="OdhpevQ0fFRFlVbCwTi9-29" source="OdhpevQ0fFRFlVbCwTi9-1" target="OdhpevQ0fFRFlVbCwTi9-9">
          <mxGeometry width="50" height="50" relative="1" as="geometry">
            <mxPoint x="240" y="200" as="sourcePoint" />
            <mxPoint x="290" y="150" as="targetPoint" />
            <Array as="points">
              <mxPoint y="35" />
              <mxPoint y="280" />
            </Array>
          </mxGeometry>
        </mxCell>
        <mxCell id="OdhpevQ0fFRFlVbCwTi9-24" value="Author_ID + Name&amp;nbsp;&lt;div&gt;+ Last_Name&lt;/div&gt;" style="edgeLabel;html=1;align=center;verticalAlign=middle;resizable=0;points=[];" vertex="1" connectable="0" parent="OdhpevQ0fFRFlVbCwTi9-23">
          <mxGeometry x="-0.0513" y="2" relative="1" as="geometry">
            <mxPoint x="48" y="-30" as="offset" />
          </mxGeometry>
        </mxCell>
        <mxCell id="OdhpevQ0fFRFlVbCwTi9-25" value="" style="endArrow=classic;html=1;rounded=0;entryX=1;entryY=0.5;entryDx=0;entryDy=0;jumpStyle=none;strokeColor=default;flowAnimation=0;exitX=1;exitY=0.75;exitDx=0;exitDy=0;" edge="1" parent="OdhpevQ0fFRFlVbCwTi9-29" source="OdhpevQ0fFRFlVbCwTi9-1" target="OdhpevQ0fFRFlVbCwTi9-9">
          <mxGeometry width="50" height="50" relative="1" as="geometry">
            <mxPoint x="290" y="10" as="sourcePoint" />
            <mxPoint x="250" y="290" as="targetPoint" />
            <Array as="points">
              <mxPoint x="290" y="53" />
              <mxPoint x="290" y="280" />
            </Array>
          </mxGeometry>
        </mxCell>
        <mxCell id="OdhpevQ0fFRFlVbCwTi9-26" value="Name&amp;nbsp;&lt;div&gt;+ Last_Name&lt;/div&gt;" style="edgeLabel;html=1;align=center;verticalAlign=middle;resizable=0;points=[];" vertex="1" connectable="0" parent="OdhpevQ0fFRFlVbCwTi9-25">
          <mxGeometry x="0.0381" y="1" relative="1" as="geometry">
            <mxPoint x="39" y="13" as="offset" />
          </mxGeometry>
        </mxCell>
        <mxCell id="OdhpevQ0fFRFlVbCwTi9-27" value="" style="endArrow=classic;html=1;rounded=0;entryX=0.5;entryY=1;entryDx=0;entryDy=0;exitX=1;exitY=0.25;exitDx=0;exitDy=0;" edge="1" parent="OdhpevQ0fFRFlVbCwTi9-29" source="OdhpevQ0fFRFlVbCwTi9-1" target="OdhpevQ0fFRFlVbCwTi9-9">
          <mxGeometry width="50" height="50" relative="1" as="geometry">
            <mxPoint x="210" y="140" as="sourcePoint" />
            <mxPoint x="340" y="240" as="targetPoint" />
            <Array as="points">
              <mxPoint x="400" y="18" />
              <mxPoint x="400" y="360" />
              <mxPoint x="155" y="360" />
            </Array>
          </mxGeometry>
        </mxCell>
        <mxCell id="OdhpevQ0fFRFlVbCwTi9-28" value="Author_ID" style="text;html=1;align=center;verticalAlign=middle;resizable=0;points=[];autosize=1;strokeColor=none;fillColor=none;" vertex="1" parent="OdhpevQ0fFRFlVbCwTi9-29">
          <mxGeometry x="230" y="368" width="80" height="30" as="geometry" />
        </mxCell>
        <mxCell id="OdhpevQ0fFRFlVbCwTi9-116" value="" style="group" vertex="1" connectable="0" parent="OdhpevQ0fFRFlVbCwTi9-29">
          <mxGeometry x="65" y="250" width="180" height="60" as="geometry" />
        </mxCell>
        <mxCell id="OdhpevQ0fFRFlVbCwTi9-13" value="" style="endArrow=classic;html=1;rounded=0;exitX=0.5;exitY=0;exitDx=0;exitDy=0;entryX=0.5;entryY=1;entryDx=0;entryDy=0;" edge="1" parent="OdhpevQ0fFRFlVbCwTi9-116" source="OdhpevQ0fFRFlVbCwTi9-9" target="OdhpevQ0fFRFlVbCwTi9-1">
          <mxGeometry width="50" height="50" relative="1" as="geometry">
            <mxPoint x="445" y="-150" as="sourcePoint" />
            <mxPoint x="415" y="-170" as="targetPoint" />
          </mxGeometry>
        </mxCell>
        <mxCell id="OdhpevQ0fFRFlVbCwTi9-14" value="1{Author_ID + Name&amp;nbsp;&lt;div&gt;+ Last_Name}N&lt;/div&gt;" style="edgeLabel;html=1;align=center;verticalAlign=middle;resizable=0;points=[];" vertex="1" connectable="0" parent="OdhpevQ0fFRFlVbCwTi9-13">
          <mxGeometry x="0.2" y="3" relative="1" as="geometry">
            <mxPoint x="68" y="-8" as="offset" />
          </mxGeometry>
        </mxCell>
        <mxCell id="OdhpevQ0fFRFlVbCwTi9-16" value="" style="group" vertex="1" connectable="0" parent="OdhpevQ0fFRFlVbCwTi9-116">
          <mxGeometry width="180" height="60" as="geometry" />
        </mxCell>
        <mxCell id="OdhpevQ0fFRFlVbCwTi9-9" value="D1" style="html=1;dashed=0;whiteSpace=wrap;shape=mxgraph.dfd.dataStoreID;align=left;spacingLeft=3;points=[[0,0],[0.5,0],[1,0],[0,0.5],[1,0.5],[0,1],[0.5,1],[1,1]];" vertex="1" parent="OdhpevQ0fFRFlVbCwTi9-16">
          <mxGeometry width="180" height="60" as="geometry" />
        </mxCell>
        <mxCell id="OdhpevQ0fFRFlVbCwTi9-15" value="AUTHOR" style="text;html=1;align=center;verticalAlign=middle;resizable=0;points=[];autosize=1;strokeColor=none;fillColor=none;" vertex="1" parent="OdhpevQ0fFRFlVbCwTi9-16">
          <mxGeometry x="55" y="15" width="70" height="30" as="geometry" />
        </mxCell>
        <mxCell id="OdhpevQ0fFRFlVbCwTi9-30" value="" style="group" vertex="1" connectable="0" parent="1">
          <mxGeometry x="730" y="400" width="400" height="398" as="geometry" />
        </mxCell>
        <mxCell id="OdhpevQ0fFRFlVbCwTi9-31" value="&lt;span style=&quot;text-indent: -24px;&quot;&gt;&lt;span style=&quot;font-variant-numeric: normal; font-variant-east-asian: normal; font-variant-alternates: normal; font-size-adjust: none; font-kerning: auto; font-optical-sizing: auto; font-feature-settings: normal; font-variation-settings: normal; font-variant-position: normal; font-variant-emoji: normal; font-stretch: normal; font-size: 7pt; line-height: normal; font-family: &amp;quot;Times New Roman&amp;quot;;&quot;&gt;&amp;nbsp;&lt;/span&gt;&lt;/span&gt;&lt;span style=&quot;text-indent: -24px; font-family: &amp;quot;Helvetica World&amp;quot;;&quot;&gt;MAINTAIN BOOKS&lt;/span&gt;" style="rounded=1;whiteSpace=wrap;html=1;" vertex="1" parent="OdhpevQ0fFRFlVbCwTi9-30">
          <mxGeometry x="80" width="150" height="70" as="geometry" />
        </mxCell>
        <mxCell id="OdhpevQ0fFRFlVbCwTi9-32" value="" style="endArrow=classic;html=1;rounded=0;exitX=0.5;exitY=0;exitDx=0;exitDy=0;entryX=0.5;entryY=1;entryDx=0;entryDy=0;" edge="1" parent="OdhpevQ0fFRFlVbCwTi9-30" source="OdhpevQ0fFRFlVbCwTi9-35" target="OdhpevQ0fFRFlVbCwTi9-31">
          <mxGeometry width="50" height="50" relative="1" as="geometry">
            <mxPoint x="510" y="100" as="sourcePoint" />
            <mxPoint x="480" y="80" as="targetPoint" />
          </mxGeometry>
        </mxCell>
        <mxCell id="OdhpevQ0fFRFlVbCwTi9-33" value="1{Book_ID + Title + ISBN&lt;br&gt;&lt;span style=&quot;background-color: light-dark(#ffffff, var(--ge-dark-color, #121212)); color: light-dark(rgb(0, 0, 0), rgb(255, 255, 255));&quot;&gt;+&amp;nbsp; Price&lt;/span&gt;&lt;span style=&quot;background-color: light-dark(#ffffff, var(--ge-dark-color, #121212)); color: light-dark(rgb(0, 0, 0), rgb(255, 255, 255));&quot;&gt;} N&lt;/span&gt;" style="edgeLabel;html=1;align=center;verticalAlign=middle;resizable=0;points=[];" vertex="1" connectable="0" parent="OdhpevQ0fFRFlVbCwTi9-32">
          <mxGeometry x="0.2" y="3" relative="1" as="geometry">
            <mxPoint x="68" y="-8" as="offset" />
          </mxGeometry>
        </mxCell>
        <mxCell id="OdhpevQ0fFRFlVbCwTi9-34" value="" style="group" vertex="1" connectable="0" parent="OdhpevQ0fFRFlVbCwTi9-30">
          <mxGeometry x="65" y="250" width="180" height="60" as="geometry" />
        </mxCell>
        <mxCell id="OdhpevQ0fFRFlVbCwTi9-35" value="D2" style="html=1;dashed=0;whiteSpace=wrap;shape=mxgraph.dfd.dataStoreID;align=left;spacingLeft=3;points=[[0,0],[0.5,0],[1,0],[0,0.5],[1,0.5],[0,1],[0.5,1],[1,1]];" vertex="1" parent="OdhpevQ0fFRFlVbCwTi9-34">
          <mxGeometry width="180" height="60" as="geometry" />
        </mxCell>
        <mxCell id="OdhpevQ0fFRFlVbCwTi9-36" value="BOOKS" style="text;html=1;align=center;verticalAlign=middle;resizable=0;points=[];autosize=1;strokeColor=none;fillColor=none;" vertex="1" parent="OdhpevQ0fFRFlVbCwTi9-34">
          <mxGeometry x="55" y="15" width="70" height="30" as="geometry" />
        </mxCell>
        <mxCell id="OdhpevQ0fFRFlVbCwTi9-37" value="" style="endArrow=classic;html=1;rounded=0;entryX=0;entryY=0.5;entryDx=0;entryDy=0;curved=0;exitX=0;exitY=0.5;exitDx=0;exitDy=0;" edge="1" parent="OdhpevQ0fFRFlVbCwTi9-30" source="OdhpevQ0fFRFlVbCwTi9-31" target="OdhpevQ0fFRFlVbCwTi9-35">
          <mxGeometry width="50" height="50" relative="1" as="geometry">
            <mxPoint x="240" y="200" as="sourcePoint" />
            <mxPoint x="290" y="150" as="targetPoint" />
            <Array as="points">
              <mxPoint y="35" />
              <mxPoint y="280" />
            </Array>
          </mxGeometry>
        </mxCell>
        <mxCell id="OdhpevQ0fFRFlVbCwTi9-38" value="Book_ID + Title + ISBN&lt;div&gt;+&amp;nbsp; Price&lt;/div&gt;" style="edgeLabel;html=1;align=center;verticalAlign=middle;resizable=0;points=[];" vertex="1" connectable="0" parent="OdhpevQ0fFRFlVbCwTi9-37">
          <mxGeometry x="-0.0513" y="2" relative="1" as="geometry">
            <mxPoint x="63" y="-40" as="offset" />
          </mxGeometry>
        </mxCell>
        <mxCell id="OdhpevQ0fFRFlVbCwTi9-39" value="" style="endArrow=classic;html=1;rounded=0;entryX=1;entryY=0.5;entryDx=0;entryDy=0;jumpStyle=none;strokeColor=default;flowAnimation=0;exitX=1;exitY=0.75;exitDx=0;exitDy=0;" edge="1" parent="OdhpevQ0fFRFlVbCwTi9-30" source="OdhpevQ0fFRFlVbCwTi9-31" target="OdhpevQ0fFRFlVbCwTi9-35">
          <mxGeometry width="50" height="50" relative="1" as="geometry">
            <mxPoint x="290" y="10" as="sourcePoint" />
            <mxPoint x="250" y="290" as="targetPoint" />
            <Array as="points">
              <mxPoint x="290" y="53" />
              <mxPoint x="290" y="280" />
            </Array>
          </mxGeometry>
        </mxCell>
        <mxCell id="OdhpevQ0fFRFlVbCwTi9-40" value="Title + ISBN&lt;div&gt;+&amp;nbsp; Price&lt;/div&gt;" style="edgeLabel;html=1;align=center;verticalAlign=middle;resizable=0;points=[];" vertex="1" connectable="0" parent="OdhpevQ0fFRFlVbCwTi9-39">
          <mxGeometry x="0.0381" y="1" relative="1" as="geometry">
            <mxPoint x="39" y="13" as="offset" />
          </mxGeometry>
        </mxCell>
        <mxCell id="OdhpevQ0fFRFlVbCwTi9-41" value="" style="endArrow=classic;html=1;rounded=0;entryX=0.5;entryY=1;entryDx=0;entryDy=0;exitX=1;exitY=0.25;exitDx=0;exitDy=0;" edge="1" parent="OdhpevQ0fFRFlVbCwTi9-30" source="OdhpevQ0fFRFlVbCwTi9-31" target="OdhpevQ0fFRFlVbCwTi9-35">
          <mxGeometry width="50" height="50" relative="1" as="geometry">
            <mxPoint x="210" y="140" as="sourcePoint" />
            <mxPoint x="340" y="240" as="targetPoint" />
            <Array as="points">
              <mxPoint x="400" y="18" />
              <mxPoint x="400" y="360" />
              <mxPoint x="155" y="360" />
            </Array>
          </mxGeometry>
        </mxCell>
        <mxCell id="OdhpevQ0fFRFlVbCwTi9-42" value="Book_ID" style="text;html=1;align=center;verticalAlign=middle;resizable=0;points=[];autosize=1;strokeColor=none;fillColor=none;" vertex="1" parent="OdhpevQ0fFRFlVbCwTi9-30">
          <mxGeometry x="235" y="368" width="70" height="30" as="geometry" />
        </mxCell>
        <mxCell id="OdhpevQ0fFRFlVbCwTi9-43" value="" style="group" vertex="1" connectable="0" parent="1">
          <mxGeometry x="1330" y="400" width="400" height="398" as="geometry" />
        </mxCell>
        <mxCell id="OdhpevQ0fFRFlVbCwTi9-44" value="&lt;span style=&quot;text-indent: -24px;&quot;&gt;&lt;span style=&quot;font-variant-numeric: normal; font-variant-east-asian: normal; font-variant-alternates: normal; font-size-adjust: none; font-kerning: auto; font-optical-sizing: auto; font-feature-settings: normal; font-variation-settings: normal; font-variant-position: normal; font-variant-emoji: normal; font-stretch: normal; font-size: 7pt; line-height: normal; font-family: &amp;quot;Times New Roman&amp;quot;;&quot;&gt;&amp;nbsp;&lt;/span&gt;&lt;/span&gt;&lt;span style=&quot;text-indent: -24px; font-family: &amp;quot;Helvetica World&amp;quot;;&quot;&gt;MAINTAIN READERS&lt;/span&gt;" style="rounded=1;whiteSpace=wrap;html=1;" vertex="1" parent="OdhpevQ0fFRFlVbCwTi9-43">
          <mxGeometry x="80" width="150" height="70" as="geometry" />
        </mxCell>
        <mxCell id="OdhpevQ0fFRFlVbCwTi9-45" value="" style="endArrow=classic;html=1;rounded=0;exitX=0.5;exitY=0;exitDx=0;exitDy=0;entryX=0.5;entryY=1;entryDx=0;entryDy=0;" edge="1" parent="OdhpevQ0fFRFlVbCwTi9-43" source="OdhpevQ0fFRFlVbCwTi9-48" target="OdhpevQ0fFRFlVbCwTi9-44">
          <mxGeometry width="50" height="50" relative="1" as="geometry">
            <mxPoint x="510" y="100" as="sourcePoint" />
            <mxPoint x="480" y="80" as="targetPoint" />
          </mxGeometry>
        </mxCell>
        <mxCell id="OdhpevQ0fFRFlVbCwTi9-46" value="1{Reader_ID + Name&amp;nbsp;&lt;span style=&quot;color: light-dark(rgb(0, 0, 0), rgb(255, 255, 255));&quot;&gt;+&amp;nbsp;&lt;br&gt;&lt;/span&gt;&lt;span style=&quot;color: light-dark(rgb(0, 0, 0), rgb(255, 255, 255)); background-color: light-dark(#ffffff, var(--ge-dark-color, #121212));&quot;&gt;Last_Name&amp;nbsp;&lt;/span&gt;&lt;div&gt;&lt;span style=&quot;color: light-dark(rgb(0, 0, 0), rgb(255, 255, 255)); background-color: light-dark(#ffffff, var(--ge-dark-color, #121212));&quot;&gt;+ Cellphone_No&lt;/span&gt;&lt;span style=&quot;background-color: light-dark(#ffffff, var(--ge-dark-color, #121212)); color: light-dark(rgb(0, 0, 0), rgb(255, 255, 255));&quot;&gt;} N&lt;/span&gt;&lt;/div&gt;" style="edgeLabel;html=1;align=center;verticalAlign=middle;resizable=0;points=[];" vertex="1" connectable="0" parent="OdhpevQ0fFRFlVbCwTi9-45">
          <mxGeometry x="0.2" y="3" relative="1" as="geometry">
            <mxPoint x="68" y="8" as="offset" />
          </mxGeometry>
        </mxCell>
        <mxCell id="OdhpevQ0fFRFlVbCwTi9-47" value="" style="group" vertex="1" connectable="0" parent="OdhpevQ0fFRFlVbCwTi9-43">
          <mxGeometry x="65" y="250" width="180" height="60" as="geometry" />
        </mxCell>
        <mxCell id="OdhpevQ0fFRFlVbCwTi9-48" value="D3" style="html=1;dashed=0;whiteSpace=wrap;shape=mxgraph.dfd.dataStoreID;align=left;spacingLeft=3;points=[[0,0],[0.5,0],[1,0],[0,0.5],[1,0.5],[0,1],[0.5,1],[1,1]];" vertex="1" parent="OdhpevQ0fFRFlVbCwTi9-47">
          <mxGeometry width="180" height="60" as="geometry" />
        </mxCell>
        <mxCell id="OdhpevQ0fFRFlVbCwTi9-49" value="READERS" style="text;html=1;align=center;verticalAlign=middle;resizable=0;points=[];autosize=1;strokeColor=none;fillColor=none;" vertex="1" parent="OdhpevQ0fFRFlVbCwTi9-47">
          <mxGeometry x="50" y="15" width="80" height="30" as="geometry" />
        </mxCell>
        <mxCell id="OdhpevQ0fFRFlVbCwTi9-50" value="" style="endArrow=classic;html=1;rounded=0;entryX=0;entryY=0.5;entryDx=0;entryDy=0;curved=0;exitX=0;exitY=0.5;exitDx=0;exitDy=0;" edge="1" parent="OdhpevQ0fFRFlVbCwTi9-43" source="OdhpevQ0fFRFlVbCwTi9-44" target="OdhpevQ0fFRFlVbCwTi9-48">
          <mxGeometry width="50" height="50" relative="1" as="geometry">
            <mxPoint x="240" y="200" as="sourcePoint" />
            <mxPoint x="290" y="150" as="targetPoint" />
            <Array as="points">
              <mxPoint y="35" />
              <mxPoint y="280" />
            </Array>
          </mxGeometry>
        </mxCell>
        <mxCell id="OdhpevQ0fFRFlVbCwTi9-51" value="&lt;font&gt;Reader_ID + Name&amp;nbsp;&lt;/font&gt;&lt;span style=&quot;background-color: light-dark(#ffffff, var(--ge-dark-color, #121212)); color: light-dark(rgb(0, 0, 0), rgb(255, 255, 255));&quot;&gt;+&amp;nbsp;&lt;/span&gt;&lt;div&gt;&lt;span style=&quot;background-color: light-dark(#ffffff, var(--ge-dark-color, #121212)); color: light-dark(rgb(0, 0, 0), rgb(255, 255, 255));&quot;&gt;Last_Name + Cellphone_No&lt;/span&gt;&lt;/div&gt;" style="edgeLabel;html=1;align=center;verticalAlign=middle;resizable=0;points=[];" vertex="1" connectable="0" parent="OdhpevQ0fFRFlVbCwTi9-50">
          <mxGeometry x="-0.0513" y="2" relative="1" as="geometry">
            <mxPoint x="78" y="-40" as="offset" />
          </mxGeometry>
        </mxCell>
        <mxCell id="OdhpevQ0fFRFlVbCwTi9-52" value="" style="endArrow=classic;html=1;rounded=0;entryX=1;entryY=0.5;entryDx=0;entryDy=0;jumpStyle=none;strokeColor=default;flowAnimation=0;exitX=1;exitY=0.75;exitDx=0;exitDy=0;" edge="1" parent="OdhpevQ0fFRFlVbCwTi9-43" source="OdhpevQ0fFRFlVbCwTi9-44" target="OdhpevQ0fFRFlVbCwTi9-48">
          <mxGeometry width="50" height="50" relative="1" as="geometry">
            <mxPoint x="290" y="10" as="sourcePoint" />
            <mxPoint x="250" y="290" as="targetPoint" />
            <Array as="points">
              <mxPoint x="290" y="53" />
              <mxPoint x="290" y="280" />
            </Array>
          </mxGeometry>
        </mxCell>
        <mxCell id="OdhpevQ0fFRFlVbCwTi9-53" value="Name&lt;div&gt;&amp;nbsp;&lt;span style=&quot;color: light-dark(rgb(0, 0, 0), rgb(255, 255, 255));&quot;&gt;+&amp;nbsp;&lt;/span&gt;&lt;span style=&quot;color: light-dark(rgb(0, 0, 0), rgb(255, 255, 255)); background-color: light-dark(#ffffff, var(--ge-dark-color, #121212));&quot;&gt;Last_Name&amp;nbsp;&lt;/span&gt;&lt;div&gt;&lt;span style=&quot;color: light-dark(rgb(0, 0, 0), rgb(255, 255, 255));&quot;&gt;+ Cellphone_No&lt;/span&gt;&lt;/div&gt;&lt;/div&gt;" style="edgeLabel;html=1;align=center;verticalAlign=middle;resizable=0;points=[];" vertex="1" connectable="0" parent="OdhpevQ0fFRFlVbCwTi9-52">
          <mxGeometry x="0.0381" y="1" relative="1" as="geometry">
            <mxPoint x="49" y="45" as="offset" />
          </mxGeometry>
        </mxCell>
        <mxCell id="OdhpevQ0fFRFlVbCwTi9-54" value="" style="endArrow=classic;html=1;rounded=0;entryX=0.5;entryY=1;entryDx=0;entryDy=0;exitX=1;exitY=0.25;exitDx=0;exitDy=0;" edge="1" parent="OdhpevQ0fFRFlVbCwTi9-43" source="OdhpevQ0fFRFlVbCwTi9-44" target="OdhpevQ0fFRFlVbCwTi9-48">
          <mxGeometry width="50" height="50" relative="1" as="geometry">
            <mxPoint x="210" y="140" as="sourcePoint" />
            <mxPoint x="340" y="240" as="targetPoint" />
            <Array as="points">
              <mxPoint x="400" y="18" />
              <mxPoint x="400" y="360" />
              <mxPoint x="155" y="360" />
            </Array>
          </mxGeometry>
        </mxCell>
        <mxCell id="OdhpevQ0fFRFlVbCwTi9-55" value="Reader_ID" style="text;html=1;align=center;verticalAlign=middle;resizable=0;points=[];autosize=1;strokeColor=none;fillColor=none;" vertex="1" parent="OdhpevQ0fFRFlVbCwTi9-43">
          <mxGeometry x="230" y="368" width="80" height="30" as="geometry" />
        </mxCell>
        <mxCell id="OdhpevQ0fFRFlVbCwTi9-117" value="" style="endArrow=classic;html=1;rounded=0;exitX=0.5;exitY=0;exitDx=0;exitDy=0;entryX=0.75;entryY=1;entryDx=0;entryDy=0;" edge="1" parent="1" source="OdhpevQ0fFRFlVbCwTi9-120" target="OdhpevQ0fFRFlVbCwTi9-91">
          <mxGeometry width="50" height="50" relative="1" as="geometry">
            <mxPoint x="3895" y="550" as="sourcePoint" />
            <mxPoint x="3540" y="520" as="targetPoint" />
            <Array as="points" />
          </mxGeometry>
        </mxCell>
        <mxCell id="OdhpevQ0fFRFlVbCwTi9-118" value="1{Author_ID + Name&amp;nbsp;&lt;div&gt;+ Last_Name}N&lt;/div&gt;" style="edgeLabel;html=1;align=center;verticalAlign=middle;resizable=0;points=[];" vertex="1" connectable="0" parent="OdhpevQ0fFRFlVbCwTi9-117">
          <mxGeometry x="0.2" y="3" relative="1" as="geometry">
            <mxPoint x="72" y="-37" as="offset" />
          </mxGeometry>
        </mxCell>
        <mxCell id="OdhpevQ0fFRFlVbCwTi9-119" value="" style="group" vertex="1" connectable="0" parent="1">
          <mxGeometry x="3220" y="788" width="180" height="60" as="geometry" />
        </mxCell>
        <mxCell id="OdhpevQ0fFRFlVbCwTi9-120" value="D1" style="html=1;dashed=0;whiteSpace=wrap;shape=mxgraph.dfd.dataStoreID;align=left;spacingLeft=3;points=[[0,0],[0.5,0],[1,0],[0,0.5],[1,0.5],[0,1],[0.5,1],[1,1]];" vertex="1" parent="OdhpevQ0fFRFlVbCwTi9-119">
          <mxGeometry width="180" height="60" as="geometry" />
        </mxCell>
        <mxCell id="OdhpevQ0fFRFlVbCwTi9-121" value="AUTHOR" style="text;html=1;align=center;verticalAlign=middle;resizable=0;points=[];autosize=1;strokeColor=none;fillColor=none;" vertex="1" parent="OdhpevQ0fFRFlVbCwTi9-119">
          <mxGeometry x="55" y="15" width="70" height="30" as="geometry" />
        </mxCell>
        <mxCell id="OdhpevQ0fFRFlVbCwTi9-122" value="" style="endArrow=classic;html=1;rounded=0;exitX=0.5;exitY=1;exitDx=0;exitDy=0;entryX=1;entryY=0.25;entryDx=0;entryDy=0;" edge="1" parent="1" source="OdhpevQ0fFRFlVbCwTi9-125" target="OdhpevQ0fFRFlVbCwTi9-91">
          <mxGeometry width="50" height="50" relative="1" as="geometry">
            <mxPoint x="4155" y="580" as="sourcePoint" />
            <mxPoint x="3800" y="550" as="targetPoint" />
            <Array as="points">
              <mxPoint x="3530" y="420" />
            </Array>
          </mxGeometry>
        </mxCell>
        <mxCell id="OdhpevQ0fFRFlVbCwTi9-123" value="1{Book_ID + Title + ISBN&lt;br&gt;&lt;span style=&quot;background-color: light-dark(#ffffff, var(--ge-dark-color, #121212)); color: light-dark(rgb(0, 0, 0), rgb(255, 255, 255));&quot;&gt;+&amp;nbsp; Price&lt;/span&gt;&lt;span style=&quot;background-color: light-dark(#ffffff, var(--ge-dark-color, #121212)); color: light-dark(rgb(0, 0, 0), rgb(255, 255, 255));&quot;&gt;} N&lt;/span&gt;" style="edgeLabel;html=1;align=center;verticalAlign=middle;resizable=0;points=[];" vertex="1" connectable="0" parent="OdhpevQ0fFRFlVbCwTi9-122">
          <mxGeometry x="0.2" y="3" relative="1" as="geometry">
            <mxPoint x="108" y="-95" as="offset" />
          </mxGeometry>
        </mxCell>
        <mxCell id="OdhpevQ0fFRFlVbCwTi9-124" value="" style="group" vertex="1" connectable="0" parent="1">
          <mxGeometry x="3440" y="160" width="180" height="60" as="geometry" />
        </mxCell>
        <mxCell id="OdhpevQ0fFRFlVbCwTi9-125" value="D2" style="html=1;dashed=0;whiteSpace=wrap;shape=mxgraph.dfd.dataStoreID;align=left;spacingLeft=3;points=[[0,0],[0.5,0],[1,0],[0,0.5],[1,0.5],[0,1],[0.5,1],[1,1]];" vertex="1" parent="OdhpevQ0fFRFlVbCwTi9-124">
          <mxGeometry width="180" height="60" as="geometry" />
        </mxCell>
        <mxCell id="OdhpevQ0fFRFlVbCwTi9-126" value="BOOKS" style="text;html=1;align=center;verticalAlign=middle;resizable=0;points=[];autosize=1;strokeColor=none;fillColor=none;" vertex="1" parent="OdhpevQ0fFRFlVbCwTi9-124">
          <mxGeometry x="55" y="15" width="70" height="30" as="geometry" />
        </mxCell>
        <mxCell id="OdhpevQ0fFRFlVbCwTi9-127" value="" style="endArrow=classic;html=1;rounded=0;exitX=0.5;exitY=0;exitDx=0;exitDy=0;entryX=1;entryY=0.75;entryDx=0;entryDy=0;" edge="1" parent="1" source="OdhpevQ0fFRFlVbCwTi9-130" target="OdhpevQ0fFRFlVbCwTi9-91">
          <mxGeometry width="50" height="50" relative="1" as="geometry">
            <mxPoint x="4365" y="460" as="sourcePoint" />
            <mxPoint x="4010" y="430" as="targetPoint" />
            <Array as="points">
              <mxPoint x="3530" y="453" />
            </Array>
          </mxGeometry>
        </mxCell>
        <mxCell id="OdhpevQ0fFRFlVbCwTi9-128" value="1{Reader_ID + Name&amp;nbsp;&lt;span style=&quot;color: light-dark(rgb(0, 0, 0), rgb(255, 255, 255));&quot;&gt;+&amp;nbsp;&lt;br&gt;&lt;/span&gt;&lt;span style=&quot;color: light-dark(rgb(0, 0, 0), rgb(255, 255, 255)); background-color: light-dark(#ffffff, var(--ge-dark-color, #121212));&quot;&gt;Last_Name&amp;nbsp;&lt;/span&gt;&lt;div&gt;&lt;span style=&quot;color: light-dark(rgb(0, 0, 0), rgb(255, 255, 255)); background-color: light-dark(#ffffff, var(--ge-dark-color, #121212));&quot;&gt;+ Cellphone_No&lt;/span&gt;&lt;span style=&quot;background-color: light-dark(#ffffff, var(--ge-dark-color, #121212)); color: light-dark(rgb(0, 0, 0), rgb(255, 255, 255));&quot;&gt;} N&lt;/span&gt;&lt;/div&gt;" style="edgeLabel;html=1;align=center;verticalAlign=middle;resizable=0;points=[];" vertex="1" connectable="0" parent="OdhpevQ0fFRFlVbCwTi9-127">
          <mxGeometry x="0.2" y="3" relative="1" as="geometry">
            <mxPoint x="72" y="104" as="offset" />
          </mxGeometry>
        </mxCell>
        <mxCell id="OdhpevQ0fFRFlVbCwTi9-129" value="" style="group" vertex="1" connectable="0" parent="1">
          <mxGeometry x="3440" y="720" width="180" height="60" as="geometry" />
        </mxCell>
        <mxCell id="OdhpevQ0fFRFlVbCwTi9-130" value="D3" style="html=1;dashed=0;whiteSpace=wrap;shape=mxgraph.dfd.dataStoreID;align=left;spacingLeft=3;points=[[0,0],[0.5,0],[1,0],[0,0.5],[1,0.5],[0,1],[0.5,1],[1,1]];" vertex="1" parent="OdhpevQ0fFRFlVbCwTi9-129">
          <mxGeometry width="180" height="60" as="geometry" />
        </mxCell>
        <mxCell id="OdhpevQ0fFRFlVbCwTi9-131" value="READERS" style="text;html=1;align=center;verticalAlign=middle;resizable=0;points=[];autosize=1;strokeColor=none;fillColor=none;" vertex="1" parent="OdhpevQ0fFRFlVbCwTi9-129">
          <mxGeometry x="50" y="15" width="80" height="30" as="geometry" />
        </mxCell>
      </root>
    </mxGraphModel>
  </diagram>
</mxfile>
